<?xml version="1.0" encoding="UTF-8" standalone="no"?>
<!-- Created with Inkscape (http://www.inkscape.org/) -->

<svg
   width="816"
   height="1056"
   viewBox="0 0 215.9 279.4"
   version="1.1"
   id="svg1"
   inkscape:version="1.4 (e7c3feb1, 2024-10-09)"
   sodipodi:docname="assets.svg"
   xmlns:inkscape="http://www.inkscape.org/namespaces/inkscape"
   xmlns:sodipodi="http://sodipodi.sourceforge.net/DTD/sodipodi-0.dtd"
   xmlns="http://www.w3.org/2000/svg"
   xmlns:svg="http://www.w3.org/2000/svg"
   xmlns:ns3="http://www.iki.fi/pav/software/textext/">
  <sodipodi:namedview
     id="namedview1"
     pagecolor="#ffffff"
     bordercolor="#666666"
     borderopacity="1.0"
     inkscape:showpageshadow="2"
     inkscape:pageopacity="0.0"
     inkscape:pagecheckerboard="0"
     inkscape:deskcolor="#d1d1d1"
     inkscape:document-units="px"
     inkscape:zoom="2.8971961"
     inkscape:cx="165.33227"
     inkscape:cy="130.2984"
     inkscape:window-width="1440"
     inkscape:window-height="792"
     inkscape:window-x="0"
     inkscape:window-y="25"
     inkscape:window-maximized="0"
     inkscape:current-layer="layer1">
    <inkscape:page
       x="0"
       y="0"
       width="215.89999"
       height="279.39999"
       id="page36"
       margin="0"
       bleed="0"
       inkscape:label="Problem 3" />
    <inkscape:page
       x="225.89999"
       y="0"
       width="215.89999"
       height="279.39999"
       id="page37"
       margin="0"
       bleed="0"
       inkscape:label="Problem 2" />
  </sodipodi:namedview>
  <defs
     id="defs1">
    <marker
       style="overflow:visible"
       id="marker9"
       refX="0"
       refY="0"
       orient="auto-start-reverse"
       inkscape:stockid="Concave triangle arrow"
       markerWidth="1"
       markerHeight="1"
       viewBox="0 0 1 1"
       inkscape:isstock="true"
       inkscape:collect="always"
       preserveAspectRatio="xMidYMid">
      <path
         transform="scale(0.7)"
         d="M -2,-4 9,0 -2,4 c 2,-2.33 2,-5.66 0,-8 z"
         style="fill:context-stroke;fill-rule:evenodd;stroke:none"
         id="path9" />
    </marker>
    <marker
       style="overflow:visible"
       id="ConcaveTriangle"
       refX="0"
       refY="0"
       orient="auto-start-reverse"
       inkscape:stockid="Concave triangle arrow"
       markerWidth="1"
       markerHeight="1"
       viewBox="0 0 1 1"
       inkscape:isstock="true"
       inkscape:collect="always"
       preserveAspectRatio="xMidYMid">
      <path
         transform="scale(0.7)"
         d="M -2,-4 9,0 -2,4 c 2,-2.33 2,-5.66 0,-8 z"
         style="fill:context-stroke;fill-rule:evenodd;stroke:none"
         id="path7" />
    </marker>
  </defs>
  <g
     inkscape:label="Layer 1"
     inkscape:groupmode="layer"
     id="layer1">
    <g
       id="g37">
      <path
         style="fill:none;stroke:#c7354e;stroke-width:0.529167;stroke-linecap:square;stroke-linejoin:miter;stroke-opacity:1"
         d="M 55.740115,13.403788 H 27.093537"
         id="path32"
         sodipodi:nodetypes="cc" />
      <path
         style="fill:none;stroke:#c7354e;stroke-width:0.529167;stroke-linecap:round;stroke-linejoin:miter;stroke-opacity:1"
         d="m 27.427073,11.742848 c 0,0 -0.529167,0.742443 -0.529167,1.729842 0,0.987399 0.529167,1.729841 0.529167,1.729841"
         id="path33"
         sodipodi:nodetypes="czc" />
      <path
         style="fill:none;stroke:#c7354e;stroke-width:0.529167;stroke-linecap:round;stroke-linejoin:miter;stroke-opacity:1"
         d="m 55.522534,11.742848 c 0,0 0.529167,0.742443 0.529167,1.729842 0,0.987399 -0.529167,1.729841 -0.529167,1.729841"
         id="path34"
         sodipodi:nodetypes="czc" />
    </g>
    <g
       id="g48"
       inkscape:export-filename="Problem 3.png"
       inkscape:export-xdpi="500"
       inkscape:export-ydpi="500">
      <path
         style="fill:none;stroke:#000000;stroke-width:0.264583;stroke-linecap:butt;stroke-linejoin:miter;stroke-opacity:1;marker-start:url(#marker9);marker-end:url(#ConcaveTriangle)"
         d="M 18.977522,30.173713 H 64.055739"
         id="path8" />
      <path
         style="fill:none;stroke:#000000;stroke-width:0.264583px;stroke-linecap:butt;stroke-linejoin:miter;stroke-opacity:1"
         d="M 56.051701,31.166568 V 29.180857"
         id="path28" />
      <path
         style="fill:none;stroke:#c7354e;stroke-width:0.529167;stroke-linecap:square;stroke-linejoin:miter;stroke-opacity:1"
         d="M 55.740115,27.343712 H 27.093537"
         id="path29"
         sodipodi:nodetypes="cc" />
      <circle
         style="fill:#ffffff;fill-rule:evenodd;stroke:#c7354e;stroke-width:0.529167"
         id="path35"
         cx="26.878613"
         cy="27.32338"
         r="1.0583332" />
      <path
         style="fill:none;stroke:#000000;stroke-width:0.264583px;stroke-linecap:butt;stroke-linejoin:miter;stroke-opacity:1"
         d="M 26.897906,31.222675 V 29.124751"
         id="path27" />
      <circle
         style="fill:#ffffff;fill-rule:evenodd;stroke:#c7354e;stroke-width:0.529167"
         id="circle35"
         cx="56.056065"
         cy="27.32338"
         r="1.0583332" />
      <path
         style="fill:none;stroke:#000000;stroke-width:0.264583px;stroke-linecap:butt;stroke-linejoin:miter;stroke-opacity:1"
         d="M 41.516631,31.222675 V 29.124751"
         id="path36" />
      <g
         transform="matrix(0.352778 0 0 0.352778 50.611 33.0121)"
         ns3:version="1.9.0"
         ns3:texconverter="pdflatex"
         ns3:pdfconverter="inkscape"
         ns3:text="$ -2 + \\delta $"
         ns3:preamble="/Users/marcoalmeida/Library/Application Support/org.inkscape.Inkscape/config/inkscape/extensions/textext/units-preamble.tex"
         ns3:scale="1.0"
         ns3:alignment="middle center"
         ns3:stroke-to-path="0"
         ns3:inkscapeversion="1.4"
         ns3:jacobian_sqrt="0.352778"
         id="g8">
        <defs
           id="id-c4e32225-ce0b-4b4b-9c81-36596491d27b">
          <g
             id="id-6621a399-5d00-4811-aa4a-06ea0ab3a162">
            <g
               id="id-2f09ead4-ccaa-4b71-bea4-c7b4e5febfaf">
              <path
                 d="m 7.1875,-2.515625 c 0.1875,0 0.375,0 0.375,-0.203125 0,-0.21875 -0.1875,-0.21875 -0.375,-0.21875 H 1.28125 c -0.1875,0 -0.375,0 -0.375,0.21875 0,0.203125 0.1875,0.203125 0.375,0.203125 z m 0,0"
                 id="id-87d1fe8b-427a-4680-933f-090fc2ec3de4" />
            </g>
            <g
               id="id-2c3344f2-c2ff-4a42-926b-ea7385735102">
              <path
                 d="m 1.390625,-0.84375 1.15625,-1.125 c 1.703125,-1.5 2.34375,-2.09375 2.34375,-3.171875 0,-1.25 -0.96875,-2.125 -2.3125,-2.125 -1.21875,0 -2.03125,1 -2.03125,1.96875 0,0.625 0.546875,0.625 0.578125,0.625 0.1875,0 0.5625,-0.140625 0.5625,-0.578125 0,-0.296875 -0.1875,-0.578125 -0.578125,-0.578125 -0.078125,0 -0.109375,0 -0.140625,0.015625 0.25,-0.703125 0.84375,-1.109375 1.46875,-1.109375 1,0 1.46875,0.875 1.46875,1.78125 0,0.859375 -0.546875,1.734375 -1.140625,2.40625 l -2.09375,2.328125 c -0.125,0.125 -0.125,0.140625 -0.125,0.40625 H 4.59375 L 4.890625,-1.890625 H 4.625 C 4.5625,-1.578125 4.5,-1.09375 4.390625,-0.921875 4.3125,-0.84375 3.59375,-0.84375 3.34375,-0.84375 Z m 0,0"
                 id="id-5be89256-b51e-4192-9e26-c2f575aeaac5" />
            </g>
            <g
               id="id-202477ea-6217-454d-adb4-4ab3b7c3ae0d">
              <path
                 d="M 4.453125,-2.515625 H 7.5 c 0.15625,0 0.359375,0 0.359375,-0.203125 C 7.859375,-2.9375 7.65625,-2.9375 7.5,-2.9375 H 4.453125 V -6 c 0,-0.15625 0,-0.359375 -0.203125,-0.359375 -0.21875,0 -0.21875,0.203125 -0.21875,0.359375 v 3.0625 h -3.0625 c -0.15625,0 -0.359375,0 -0.359375,0.21875 0,0.203125 0.203125,0.203125 0.359375,0.203125 h 3.0625 v 3.0625 c 0,0.15625 0,0.359375 0.21875,0.359375 0.203125,0 0.203125,-0.203125 0.203125,-0.359375 z m 0,0"
                 id="id-00d89aae-304a-4835-aa27-b9010301cdcf" />
            </g>
            <g
               id="id-3cfea36d-34c6-440e-8318-45e97a437b24">
              <path
                 d="m 2.875,-4.765625 c -1.359375,0.328125 -2.421875,1.75 -2.421875,3.0625 0,1.046875 0.703125,1.828125 1.734375,1.828125 1.265625,0 2.171875,-1.703125 2.171875,-3.21875 0,-0.984375 -0.4375,-1.53125 -0.796875,-2.015625 -0.40625,-0.5 -1.046875,-1.3125 -1.046875,-1.796875 0,-0.234375 0.21875,-0.5 0.609375,-0.5 0.328125,0 0.546875,0.140625 0.765625,0.296875 0.21875,0.125 0.4375,0.265625 0.609375,0.265625 0.265625,0 0.421875,-0.25 0.421875,-0.4375 0,-0.234375 -0.171875,-0.265625 -0.5625,-0.359375 C 3.796875,-7.75 3.640625,-7.75 3.46875,-7.75 c -0.84375,0 -1.25,0.46875 -1.25,1.125 0,0.578125 0.328125,1.1875 0.65625,1.859375 z m 0.140625,0.234375 c 0.265625,0.5 0.59375,1.09375 0.59375,1.875 0,0.71875 -0.40625,2.546875 -1.421875,2.546875 -0.609375,0 -1.046875,-0.453125 -1.046875,-1.28125 0,-0.6875 0.390625,-2.75 1.875,-3.140625 z m 0,0"
                 id="id-9d419599-eba4-4b86-bd96-d1b2a6ec7fea" />
            </g>
          </g>
        </defs>
        <g
           fill="#000000"
           fill-opacity="1"
           id="id-e5e401e6-2bb0-49cc-ae72-ccbee44f75db"
           transform="translate(-143.641, -132.992)">
          <g
             transform="translate(142.735, 140.742)"
             id="g38">
            <path
               d="m 7.1875,-2.515625 c 0.1875,0 0.375,0 0.375,-0.203125 0,-0.21875 -0.1875,-0.21875 -0.375,-0.21875 H 1.28125 c -0.1875,0 -0.375,0 -0.375,0.21875 0,0.203125 0.1875,0.203125 0.375,0.203125 z m 0,0"
               id="id-125f3fbc-4563-4116-a312-7952ce835f90" />
          </g>
        </g>
        <g
           fill="#000000"
           fill-opacity="1"
           id="id-dd4605b8-8ddf-419f-9e88-c0b45fc633ef"
           transform="translate(-143.641, -132.992)">
          <g
             transform="translate(151.22, 140.742)"
             id="g39">
            <path
               d="m 1.390625,-0.84375 1.15625,-1.125 c 1.703125,-1.5 2.34375,-2.09375 2.34375,-3.171875 0,-1.25 -0.96875,-2.125 -2.3125,-2.125 -1.21875,0 -2.03125,1 -2.03125,1.96875 0,0.625 0.546875,0.625 0.578125,0.625 0.1875,0 0.5625,-0.140625 0.5625,-0.578125 0,-0.296875 -0.1875,-0.578125 -0.578125,-0.578125 -0.078125,0 -0.109375,0 -0.140625,0.015625 0.25,-0.703125 0.84375,-1.109375 1.46875,-1.109375 1,0 1.46875,0.875 1.46875,1.78125 0,0.859375 -0.546875,1.734375 -1.140625,2.40625 l -2.09375,2.328125 c -0.125,0.125 -0.125,0.140625 -0.125,0.40625 H 4.59375 L 4.890625,-1.890625 H 4.625 C 4.5625,-1.578125 4.5,-1.09375 4.390625,-0.921875 4.3125,-0.84375 3.59375,-0.84375 3.34375,-0.84375 Z m 0,0"
               id="id-61f26db5-342d-4f88-a058-65fe16bc71e2" />
          </g>
        </g>
        <g
           fill="#000000"
           fill-opacity="1"
           id="id-747b8ccc-edea-45e4-ae8d-2aaad2ab9694"
           transform="translate(-143.641, -132.992)">
          <g
             transform="translate(159.096, 140.742)"
             id="g40">
            <path
               d="M 4.453125,-2.515625 H 7.5 c 0.15625,0 0.359375,0 0.359375,-0.203125 C 7.859375,-2.9375 7.65625,-2.9375 7.5,-2.9375 H 4.453125 V -6 c 0,-0.15625 0,-0.359375 -0.203125,-0.359375 -0.21875,0 -0.21875,0.203125 -0.21875,0.359375 v 3.0625 h -3.0625 c -0.15625,0 -0.359375,0 -0.359375,0.21875 0,0.203125 0.203125,0.203125 0.359375,0.203125 h 3.0625 v 3.0625 c 0,0.15625 0,0.359375 0.21875,0.359375 0.203125,0 0.203125,-0.203125 0.203125,-0.359375 z m 0,0"
               id="id-6aebd175-fd75-4007-b40a-42db3d0d4ff1" />
          </g>
        </g>
        <g
           fill="#000000"
           fill-opacity="1"
           id="id-691cb5ca-13cc-4d40-8acf-e11cb6fc0221"
           transform="translate(-143.641, -132.992)">
          <g
             transform="translate(170.007, 140.742)"
             id="g41">
            <path
               d="m 2.875,-4.765625 c -1.359375,0.328125 -2.421875,1.75 -2.421875,3.0625 0,1.046875 0.703125,1.828125 1.734375,1.828125 1.265625,0 2.171875,-1.703125 2.171875,-3.21875 0,-0.984375 -0.4375,-1.53125 -0.796875,-2.015625 -0.40625,-0.5 -1.046875,-1.3125 -1.046875,-1.796875 0,-0.234375 0.21875,-0.5 0.609375,-0.5 0.328125,0 0.546875,0.140625 0.765625,0.296875 0.21875,0.125 0.4375,0.265625 0.609375,0.265625 0.265625,0 0.421875,-0.25 0.421875,-0.4375 0,-0.234375 -0.171875,-0.265625 -0.5625,-0.359375 C 3.796875,-7.75 3.640625,-7.75 3.46875,-7.75 c -0.84375,0 -1.25,0.46875 -1.25,1.125 0,0.578125 0.328125,1.1875 0.65625,1.859375 z m 0.140625,0.234375 c 0.265625,0.5 0.59375,1.09375 0.59375,1.875 0,0.71875 -0.40625,2.546875 -1.421875,2.546875 -0.609375,0 -1.046875,-0.453125 -1.046875,-1.28125 0,-0.6875 0.390625,-2.75 1.875,-3.140625 z m 0,0"
               id="id-77014ad9-a9a0-441f-a1fb-29eb004ee0e7" />
          </g>
        </g>
      </g>
      <g
         transform="matrix(0.352778 0 0 0.352778 39.3172 33.2573)"
         ns3:version="1.9.0"
         ns3:texconverter="pdflatex"
         ns3:pdfconverter="inkscape"
         ns3:text="$-2$"
         ns3:preamble="/Users/marcoalmeida/Library/Application Support/org.inkscape.Inkscape/config/inkscape/extensions/textext/units-preamble.tex"
         ns3:scale="1.0"
         ns3:alignment="middle center"
         ns3:stroke-to-path="0"
         ns3:inkscapeversion="1.4"
         ns3:jacobian_sqrt="0.352778"
         id="g26">
        <defs
           id="id-d873b86c-6f27-491d-80d9-2543b5a2f152">
          <g
             id="id-4a0d93d7-1fa4-4543-bc44-edd8c9523af7">
            <g
               id="id-df3f2e7b-9246-4293-a9dc-a29d6f2fc5c7">
              <path
                 d="m 7.1875,-2.515625 c 0.1875,0 0.375,0 0.375,-0.203125 0,-0.21875 -0.1875,-0.21875 -0.375,-0.21875 H 1.28125 c -0.1875,0 -0.375,0 -0.375,0.21875 0,0.203125 0.1875,0.203125 0.375,0.203125 z m 0,0"
                 id="id-2224c0ff-b108-444f-b1c5-cad046e27288" />
            </g>
            <g
               id="id-1f4ed54b-8ef7-4482-bddf-d5e49aa5f975">
              <path
                 d="m 1.390625,-0.84375 1.15625,-1.125 c 1.703125,-1.5 2.34375,-2.09375 2.34375,-3.171875 0,-1.25 -0.96875,-2.125 -2.3125,-2.125 -1.21875,0 -2.03125,1 -2.03125,1.96875 0,0.625 0.546875,0.625 0.578125,0.625 0.1875,0 0.5625,-0.140625 0.5625,-0.578125 0,-0.296875 -0.1875,-0.578125 -0.578125,-0.578125 -0.078125,0 -0.109375,0 -0.140625,0.015625 0.25,-0.703125 0.84375,-1.109375 1.46875,-1.109375 1,0 1.46875,0.875 1.46875,1.78125 0,0.859375 -0.546875,1.734375 -1.140625,2.40625 l -2.09375,2.328125 c -0.125,0.125 -0.125,0.140625 -0.125,0.40625 H 4.59375 L 4.890625,-1.890625 H 4.625 C 4.5625,-1.578125 4.5,-1.09375 4.390625,-0.921875 4.3125,-0.84375 3.59375,-0.84375 3.34375,-0.84375 Z m 0,0"
                 id="id-ecbabda2-2d75-4570-9e76-8d152744a2e3" />
            </g>
          </g>
        </defs>
        <g
           fill="#000000"
           fill-opacity="1"
           id="id-224aa9d2-cfae-46d9-a100-1eb61305f37c"
           transform="translate(-143.641, -133.476)">
          <g
             transform="translate(142.735, 140.742)"
             id="g42">
            <path
               d="m 7.1875,-2.515625 c 0.1875,0 0.375,0 0.375,-0.203125 0,-0.21875 -0.1875,-0.21875 -0.375,-0.21875 H 1.28125 c -0.1875,0 -0.375,0 -0.375,0.21875 0,0.203125 0.1875,0.203125 0.375,0.203125 z m 0,0"
               id="id-b04f761c-97b4-459c-9272-e1887a24315d" />
          </g>
        </g>
        <g
           fill="#000000"
           fill-opacity="1"
           id="id-7d1173c8-0fef-4c8a-9b75-7926d12a670b"
           transform="translate(-143.641, -133.476)">
          <g
             transform="translate(151.22, 140.742)"
             id="g43">
            <path
               d="m 1.390625,-0.84375 1.15625,-1.125 c 1.703125,-1.5 2.34375,-2.09375 2.34375,-3.171875 0,-1.25 -0.96875,-2.125 -2.3125,-2.125 -1.21875,0 -2.03125,1 -2.03125,1.96875 0,0.625 0.546875,0.625 0.578125,0.625 0.1875,0 0.5625,-0.140625 0.5625,-0.578125 0,-0.296875 -0.1875,-0.578125 -0.578125,-0.578125 -0.078125,0 -0.109375,0 -0.140625,0.015625 0.25,-0.703125 0.84375,-1.109375 1.46875,-1.109375 1,0 1.46875,0.875 1.46875,1.78125 0,0.859375 -0.546875,1.734375 -1.140625,2.40625 l -2.09375,2.328125 c -0.125,0.125 -0.125,0.140625 -0.125,0.40625 H 4.59375 L 4.890625,-1.890625 H 4.625 C 4.5625,-1.578125 4.5,-1.09375 4.390625,-0.921875 4.3125,-0.84375 3.59375,-0.84375 3.34375,-0.84375 Z m 0,0"
               id="id-8628f9a4-419d-4a70-836e-eaf97a98304b" />
          </g>
        </g>
      </g>
      <g
         transform="matrix(0.352778 0 0 0.352778 21.3848 33.1499)"
         ns3:version="1.9.0"
         ns3:texconverter="pdflatex"
         ns3:pdfconverter="inkscape"
         ns3:text="$ -2 - \\delta $"
         ns3:preamble="/Users/marcoalmeida/Library/Application Support/org.inkscape.Inkscape/config/inkscape/extensions/textext/units-preamble.tex"
         ns3:scale="1.0"
         ns3:alignment="middle center"
         ns3:stroke-to-path="0"
         ns3:inkscapeversion="1.4"
         ns3:jacobian_sqrt="0.352778"
         id="g4">
        <defs
           id="id-46eba085-6c16-4d52-b5f4-8167f44a4f07">
          <g
             id="id-a93bed34-372c-4410-99d3-c9b213c71af2">
            <g
               id="id-4df598f7-6690-4291-9137-6269d95cdb72">
              <path
                 d="m 7.1875,-2.515625 c 0.1875,0 0.375,0 0.375,-0.203125 0,-0.21875 -0.1875,-0.21875 -0.375,-0.21875 H 1.28125 c -0.1875,0 -0.375,0 -0.375,0.21875 0,0.203125 0.1875,0.203125 0.375,0.203125 z m 0,0"
                 id="id-d14c94a3-8996-4695-8b09-6f48d5c0ef7d" />
            </g>
            <g
               id="id-e2caf71c-db12-40d5-a4c1-dd08df896961">
              <path
                 d="m 1.390625,-0.84375 1.15625,-1.125 c 1.703125,-1.5 2.34375,-2.09375 2.34375,-3.171875 0,-1.25 -0.96875,-2.125 -2.3125,-2.125 -1.21875,0 -2.03125,1 -2.03125,1.96875 0,0.625 0.546875,0.625 0.578125,0.625 0.1875,0 0.5625,-0.140625 0.5625,-0.578125 0,-0.296875 -0.1875,-0.578125 -0.578125,-0.578125 -0.078125,0 -0.109375,0 -0.140625,0.015625 0.25,-0.703125 0.84375,-1.109375 1.46875,-1.109375 1,0 1.46875,0.875 1.46875,1.78125 0,0.859375 -0.546875,1.734375 -1.140625,2.40625 l -2.09375,2.328125 c -0.125,0.125 -0.125,0.140625 -0.125,0.40625 H 4.59375 L 4.890625,-1.890625 H 4.625 C 4.5625,-1.578125 4.5,-1.09375 4.390625,-0.921875 4.3125,-0.84375 3.59375,-0.84375 3.34375,-0.84375 Z m 0,0"
                 id="id-fa3100f6-033b-4e56-ae78-ac43df9c455c" />
            </g>
            <g
               id="id-1e2051f9-6d54-4d97-b623-02fd98f119a5">
              <path
                 d="m 2.875,-4.765625 c -1.359375,0.328125 -2.421875,1.75 -2.421875,3.0625 0,1.046875 0.703125,1.828125 1.734375,1.828125 1.265625,0 2.171875,-1.703125 2.171875,-3.21875 0,-0.984375 -0.4375,-1.53125 -0.796875,-2.015625 -0.40625,-0.5 -1.046875,-1.3125 -1.046875,-1.796875 0,-0.234375 0.21875,-0.5 0.609375,-0.5 0.328125,0 0.546875,0.140625 0.765625,0.296875 0.21875,0.125 0.4375,0.265625 0.609375,0.265625 0.265625,0 0.421875,-0.25 0.421875,-0.4375 0,-0.234375 -0.171875,-0.265625 -0.5625,-0.359375 C 3.796875,-7.75 3.640625,-7.75 3.46875,-7.75 c -0.84375,0 -1.25,0.46875 -1.25,1.125 0,0.578125 0.328125,1.1875 0.65625,1.859375 z m 0.140625,0.234375 c 0.265625,0.5 0.59375,1.09375 0.59375,1.875 0,0.71875 -0.40625,2.546875 -1.421875,2.546875 -0.609375,0 -1.046875,-0.453125 -1.046875,-1.28125 0,-0.6875 0.390625,-2.75 1.875,-3.140625 z m 0,0"
                 id="id-1518a396-f859-4f51-9a01-d5428f9e898d" />
            </g>
          </g>
        </defs>
        <g
           fill="#000000"
           fill-opacity="1"
           id="id-98915cf5-72fe-4f95-a02c-06da4aed699f"
           transform="translate(-143.641, -132.992)">
          <g
             transform="translate(142.735, 140.742)"
             id="g44">
            <path
               d="m 7.1875,-2.515625 c 0.1875,0 0.375,0 0.375,-0.203125 0,-0.21875 -0.1875,-0.21875 -0.375,-0.21875 H 1.28125 c -0.1875,0 -0.375,0 -0.375,0.21875 0,0.203125 0.1875,0.203125 0.375,0.203125 z m 0,0"
               id="id-f3fc51f0-c464-4cd8-911e-db6e8e44afa3" />
          </g>
        </g>
        <g
           fill="#000000"
           fill-opacity="1"
           id="id-369a5f54-16eb-4429-ba4e-835ce110e101"
           transform="translate(-143.641, -132.992)">
          <g
             transform="translate(151.22, 140.742)"
             id="g45">
            <path
               d="m 1.390625,-0.84375 1.15625,-1.125 c 1.703125,-1.5 2.34375,-2.09375 2.34375,-3.171875 0,-1.25 -0.96875,-2.125 -2.3125,-2.125 -1.21875,0 -2.03125,1 -2.03125,1.96875 0,0.625 0.546875,0.625 0.578125,0.625 0.1875,0 0.5625,-0.140625 0.5625,-0.578125 0,-0.296875 -0.1875,-0.578125 -0.578125,-0.578125 -0.078125,0 -0.109375,0 -0.140625,0.015625 0.25,-0.703125 0.84375,-1.109375 1.46875,-1.109375 1,0 1.46875,0.875 1.46875,1.78125 0,0.859375 -0.546875,1.734375 -1.140625,2.40625 l -2.09375,2.328125 c -0.125,0.125 -0.125,0.140625 -0.125,0.40625 H 4.59375 L 4.890625,-1.890625 H 4.625 C 4.5625,-1.578125 4.5,-1.09375 4.390625,-0.921875 4.3125,-0.84375 3.59375,-0.84375 3.34375,-0.84375 Z m 0,0"
               id="id-5335e4ef-8476-4a79-8adf-fc543b640f7a" />
          </g>
        </g>
        <g
           fill="#000000"
           fill-opacity="1"
           id="id-1c152c9a-5904-499c-9812-0f3a0679a413"
           transform="translate(-143.641, -132.992)">
          <g
             transform="translate(159.098, 140.742)"
             id="g46">
            <path
               d="m 7.1875,-2.515625 c 0.1875,0 0.375,0 0.375,-0.203125 0,-0.21875 -0.1875,-0.21875 -0.375,-0.21875 H 1.28125 c -0.1875,0 -0.375,0 -0.375,0.21875 0,0.203125 0.1875,0.203125 0.375,0.203125 z m 0,0"
               id="id-7310595e-b067-4367-b09e-15c010eff6ee" />
          </g>
        </g>
        <g
           fill="#000000"
           fill-opacity="1"
           id="id-1e0ab218-4918-4250-84b5-f7663a0742f8"
           transform="translate(-143.641, -132.992)">
          <g
             transform="translate(170.007, 140.742)"
             id="g47">
            <path
               d="m 2.875,-4.765625 c -1.359375,0.328125 -2.421875,1.75 -2.421875,3.0625 0,1.046875 0.703125,1.828125 1.734375,1.828125 1.265625,0 2.171875,-1.703125 2.171875,-3.21875 0,-0.984375 -0.4375,-1.53125 -0.796875,-2.015625 -0.40625,-0.5 -1.046875,-1.3125 -1.046875,-1.796875 0,-0.234375 0.21875,-0.5 0.609375,-0.5 0.328125,0 0.546875,0.140625 0.765625,0.296875 0.21875,0.125 0.4375,0.265625 0.609375,0.265625 0.265625,0 0.421875,-0.25 0.421875,-0.4375 0,-0.234375 -0.171875,-0.265625 -0.5625,-0.359375 C 3.796875,-7.75 3.640625,-7.75 3.46875,-7.75 c -0.84375,0 -1.25,0.46875 -1.25,1.125 0,0.578125 0.328125,1.1875 0.65625,1.859375 z m 0.140625,0.234375 c 0.265625,0.5 0.59375,1.09375 0.59375,1.875 0,0.71875 -0.40625,2.546875 -1.421875,2.546875 -0.609375,0 -1.046875,-0.453125 -1.046875,-1.28125 0,-0.6875 0.390625,-2.75 1.875,-3.140625 z m 0,0"
               id="id-2060c37a-0088-4e20-90c9-337ddb796f41" />
          </g>
        </g>
      </g>
    </g>
  </g>
</svg>
