<?xml version="1.0" encoding="UTF-8" standalone="no"?>
<svg
   id="preview"
   width="598"
   height="598"
   viewBox="0 0 598 598"
   xunitlength="39"
   yunitlength="39"
   xmin="-6"
   xmax="6"
   ymin="-6"
   ymax="6"
   ox="274"
   oy="274"
   version="1.1"
   sodipodi:docname="graph (40).svg"
   inkscape:version="1.4 (e7c3feb1, 2024-10-09)"
   xmlns:inkscape="http://www.inkscape.org/namespaces/inkscape"
   xmlns:sodipodi="http://sodipodi.sourceforge.net/DTD/sodipodi-0.dtd"
   xmlns="http://www.w3.org/2000/svg"
   xmlns:svg="http://www.w3.org/2000/svg">
  <sodipodi:namedview
     id="namedview4"
     pagecolor="#ffffff"
     bordercolor="#666666"
     borderopacity="1.0"
     inkscape:showpageshadow="2"
     inkscape:pageopacity="0.0"
     inkscape:pagecheckerboard="0"
     inkscape:deskcolor="#d1d1d1"
     inkscape:zoom="0.82177655"
     inkscape:cx="288.39956"
     inkscape:cy="286.57425"
     inkscape:window-width="1440"
     inkscape:window-height="792"
     inkscape:window-x="0"
     inkscape:window-y="25"
     inkscape:window-maximized="1"
     inkscape:current-layer="preview" />
  <defs
     id="defs1">
    <style
       type="text/css"
       id="style1">@import url(&quot;http://cdnjs.cloudflare.com/ajax/libs/KaTeX/0.2.0/katex.min.css&quot;)</style>
  </defs>
  <path
     d=" M274,90 274,558 M313,90 313,558 M352,90 352,558 M391,90 391,558 M430,90 430,558 M469,90 469,558 M508,90 508,558 M235,90 235,558 M196,90 196,558 M157,90 157,558 M118,90 118,558 M79,90 79,558 M40,90 40,558 M40,324 508,324 M40,363 508,363 M40,402 508,402 M40,441 508,441 M40,480 508,480 M40,519 508,519 M40,558 508,558 M40,285 508,285 M40,246 508,246 M40,207 508,207 M40,168 508,168 M40,129 508,129 M40,90 508,90"
     stroke-width="1"
     stroke="grey"
     fill="none"
     id="path1" />
  <path
     d="M 522.352 316.824 L 543.880 324 L 522.352 331.176 L 525.94 324 z"
     stroke-width="1"
     stroke="black"
     fill="black"
     id="path2" />
  <path
     d="M 266.824 75.648 L 274 54.120 L 281.176 75.648 L 274 72.06 z"
     stroke-width="1"
     stroke="black"
     fill="black"
     id="path3" />
  <path
     d="M22.060,324 525.94,324 M274,72.06 274,575.94 M274,330 274,318 M313,330 313,318 M352,330 352,318 M391,330 391,318 M430,330 430,318 M469,330 469,318 M508,330 508,318 M235,330 235,318 M196,330 196,318 M157,330 157,318 M118,330 118,318 M79,330 79,318 M40,330 40,318 M280,324 268,324 M280,363 268,363 M280,402 268,402 M280,441 268,441 M280,480 268,480 M280,519 268,519 M280,558 268,558 M280,285 268,285 M280,246 268,246 M280,207 268,207 M280,168 268,168 M280,129 268,129 M280,90 268,90"
     stroke-width="2"
     stroke="black"
     fill="none"
     id="path4" />
  <text
     id="null"
     x="274"
     y="44.120"
     font-style="italic"
     font-family="KaTeX_Main, serif"
     font-size="24"
     font-weight="normal"
     text-anchor="middle"
     fill="black"
     stroke-width="0px" />
  <text
     id="text4"
     x="553.88"
     y="332"
     font-style="italic"
     font-family="KaTeX_Main, serif"
     font-size="24"
     font-weight="normal"
     text-anchor="start"
     fill="black"
     stroke-width="0px" />
  <text
     xml:space="preserve"
     style="font-size:24px;line-height:1.25;font-family:'Minion Pro';-inkscape-font-specification:'Minion Pro';text-align:center;text-anchor:middle"
     x="536.99634"
     y="301.62802"
     id="text5"><tspan
       sodipodi:role="line"
       id="tspan4"
       x="536.99634"
       y="301.62802"
       style="font-size:24px"><tspan
         style="font-style:italic"
         id="tspan6">x</tspan><tspan
         style="font-size:65%;baseline-shift:sub"
         id="tspan5">1</tspan></tspan></text>
  <text
     xml:space="preserve"
     style="font-size:24px;line-height:1.25;font-family:'Minion Pro';-inkscape-font-specification:'Minion Pro';text-align:center;text-anchor:middle"
     x="296.06723"
     y="63.280289"
     id="text9"><tspan
       sodipodi:role="line"
       id="tspan9"
       x="296.06723"
       y="63.280289"
       style="font-size:24px"><tspan
         style="font-style:italic"
         id="tspan7">x</tspan><tspan
         style="font-size:65%;baseline-shift:sub"
         id="tspan10">2</tspan></tspan></text>
</svg>
