<?xml version="1.0" encoding="UTF-8" standalone="no"?>
<svg
   id="preview"
   width="599"
   height="598"
   viewBox="0 0 599 598"
   xunitlength="67"
   yunitlength="72"
   xmin="-3.5"
   xmax="3.5"
   ymin="-0.5"
   ymax="6"
   ox="274.5"
   oy="76"
   version="1.1"
   sodipodi:docname="graph (19).svg"
   inkscape:version="1.4 (e7c3feb1, 2024-10-09)"
   xmlns:inkscape="http://www.inkscape.org/namespaces/inkscape"
   xmlns:sodipodi="http://sodipodi.sourceforge.net/DTD/sodipodi-0.dtd"
   xmlns="http://www.w3.org/2000/svg"
   xmlns:svg="http://www.w3.org/2000/svg">
  <sodipodi:namedview
     id="namedview17"
     pagecolor="#ffffff"
     bordercolor="#666666"
     borderopacity="1.0"
     inkscape:showpageshadow="2"
     inkscape:pageopacity="0.0"
     inkscape:pagecheckerboard="0"
     inkscape:deskcolor="#d1d1d1"
     inkscape:zoom="1.6471322"
     inkscape:cx="335.73505"
     inkscape:cy="147.52914"
     inkscape:window-width="1440"
     inkscape:window-height="793"
     inkscape:window-x="0"
     inkscape:window-y="25"
     inkscape:window-maximized="1"
     inkscape:current-layer="preview" />
  <defs
     id="defs1">
    <style
       type="text/css"
       id="style1">@import url(&quot;http://cdnjs.cloudflare.com/ajax/libs/KaTeX/0.2.0/katex.min.css&quot;)</style>
  </defs>
  <path
     d="M 274.5,77.037703 V 522 m 67,-444.962297 V 522 m 67,-444.962297 V 522 m 67,-444.962297 V 522 M 207.5,77.037703 V 522 M 140.5,77.037703 V 522 M 73.5,77.037703 V 522 M 40,522 H 509 M 40,450 H 509 M 40,378 H 509 M 40,306 H 509 M 40,234 H 509 M 40,162 H 509 M 40,90 h 469"
     stroke-width="1"
     stroke="#808080"
     fill="none"
     id="path1"
     sodipodi:nodetypes="cccccccccccccccccccccccccccc" />
  <path
     d="M 523.352 514.824 L 544.880 522 L 523.352 529.176 L 526.94 522 z"
     stroke-width="1"
     stroke="black"
     fill="black"
     id="path2" />
  <path
     d="M 267.324 75.648 L 274.5 54.120 L 281.676 75.648 L 274.5 72.06 z"
     stroke-width="1"
     stroke="black"
     fill="black"
     id="path3" />
  <path
     d="M22.060,522 526.94,522 M274.5,72.06 274.5,575.94 M274.5,532.25 274.5,511.75 M341.5,532.25 341.5,511.75 M408.5,532.25 408.5,511.75 M475.5,532.25 475.5,511.75 M207.5,532.25 207.5,511.75 M140.5,532.25 140.5,511.75 M73.5,532.25 73.5,511.75 M284.75,522 264.25,522 M284.75,450 264.25,450 M284.75,378 264.25,378 M284.75,306 264.25,306 M284.75,234 264.25,234 M284.75,162 264.25,162 M284.75,90 264.25,90"
     stroke-width="2"
     stroke="black"
     fill="none"
     id="path4" />
  <text
     id="null"
     x="341.5"
     y="565"
     font-style=""
     font-family="KaTeX_Main, serif"
     font-size="41"
     font-weight="normal"
     text-anchor="middle"
     fill="black"
     stroke-width="0px">1</text>
  <text
     id="text4"
     x="408.5"
     y="565"
     font-style=""
     font-family="KaTeX_Main, serif"
     font-size="41"
     font-weight="normal"
     text-anchor="middle"
     fill="black"
     stroke-width="0px">2</text>
  <text
     id="text5"
     x="475.5"
     y="565"
     font-style=""
     font-family="KaTeX_Main, serif"
     font-size="41"
     font-weight="normal"
     text-anchor="middle"
     fill="black"
     stroke-width="0px">3</text>
  <text
     id="text6"
     x="207.5"
     y="565"
     font-style=""
     font-family="KaTeX_Main, serif"
     font-size="41"
     font-weight="normal"
     text-anchor="middle"
     fill="black"
     stroke-width="0px">-1</text>
  <text
     id="text7"
     x="140.5"
     y="565"
     font-style=""
     font-family="KaTeX_Main, serif"
     font-size="41"
     font-weight="normal"
     text-anchor="middle"
     fill="black"
     stroke-width="0px">-2</text>
  <text
     id="text8"
     x="73.5"
     y="565"
     font-style=""
     font-family="KaTeX_Main, serif"
     font-size="41"
     font-weight="normal"
     text-anchor="middle"
     fill="black"
     stroke-width="0px">-3</text>
  <text
     id="text9"
     x="258.833"
     y="463.666"
     font-style=""
     font-family="KaTeX_Main, serif"
     font-size="41"
     font-weight="normal"
     text-anchor="end"
     fill="black"
     stroke-width="0px">1</text>
  <text
     id="text10"
     x="258.833"
     y="391.666"
     font-style=""
     font-family="KaTeX_Main, serif"
     font-size="41"
     font-weight="normal"
     text-anchor="end"
     fill="black"
     stroke-width="0px">2</text>
  <text
     id="text11"
     x="258.833"
     y="319.666"
     font-style=""
     font-family="KaTeX_Main, serif"
     font-size="41"
     font-weight="normal"
     text-anchor="end"
     fill="black"
     stroke-width="0px">3</text>
  <text
     id="text12"
     x="258.833"
     y="247.666"
     font-style=""
     font-family="KaTeX_Main, serif"
     font-size="41"
     font-weight="normal"
     text-anchor="end"
     fill="black"
     stroke-width="0px">4</text>
  <text
     id="text13"
     x="258.833"
     y="175.666"
     font-style=""
     font-family="KaTeX_Main, serif"
     font-size="41"
     font-weight="normal"
     text-anchor="end"
     fill="black"
     stroke-width="0px">5</text>
  <text
     id="text14"
     x="258.833"
     y="103.666"
     font-style=""
     font-family="KaTeX_Main, serif"
     font-size="41"
     font-weight="normal"
     text-anchor="end"
     fill="black"
     stroke-width="0px">6</text>
  <text
     id="text15"
     x="274.5"
     y="38.453"
     font-style="italic"
     font-family="KaTeX_Main, serif"
     font-size="41"
     font-weight="normal"
     text-anchor="middle"
     fill="black"
     stroke-width="0px">y</text>
  <text
     id="text16"
     x="560.546"
     y="535.666"
     font-style="italic"
     font-family="KaTeX_Main, serif"
     font-size="41"
     font-weight="normal"
     text-anchor="start"
     fill="black"
     stroke-width="0px">x</text>
  <path
     id="path16"
     d="M137.272,75.959 137.987,79.098 138.489,81.294 138.992,83.483 139.494,85.663 139.997,87.835 140.499,89.999 141.002,92.155 141.504,94.303 142.007,96.443 142.509,98.574 143.012,100.698 143.514,102.813 144.017,104.921 144.519,107.020 145.022,109.111 145.524,111.194 146.027,113.269 146.529,115.336 147.032,117.395 147.534,119.445 148.037,121.488 148.539,123.522 149.042,125.549 149.544,127.567 150.047,129.577 150.549,131.579 151.052,133.573 151.554,135.559 152.057,137.537 152.559,139.506 153.062,141.468 153.564,143.421 154.067,145.367 154.569,147.304 155.072,149.233 155.574,151.154 156.077,153.067 156.579,154.972 157.082,156.869 157.584,158.757 158.087,160.638 158.589,162.510 159.092,164.375 159.594,166.231 160.097,168.079 160.599,169.919 161.102,171.751 161.604,173.575 162.107,175.391 162.609,177.198 163.112,178.998 163.614,180.789 164.117,182.573 164.619,184.348 165.122,186.115 165.624,187.874 166.127,189.625 166.629,191.368 167.132,193.103 167.634,194.829 168.137,196.548 168.639,198.258 169.142,199.961 169.644,201.655 170.147,203.341 170.649,205.019 171.152,206.689 171.654,208.351 172.157,210.005 172.659,211.650 173.162,213.288 173.664,214.917 174.167,216.539 174.669,218.152 175.172,219.757 175.674,221.354 176.177,222.943 176.679,224.524 177.182,226.097 177.684,227.661 178.187,229.218 178.689,230.766 179.192,232.307 179.694,233.839 180.197,235.363 180.699,236.879 181.202,238.387 181.704,239.887 182.207,241.379 182.709,242.862 183.212,244.338 183.714,245.805 184.217,247.265 184.719,248.716 185.222,250.159 185.724,251.594 186.227,253.021 186.729,254.440 187.232,255.851 187.734,257.253 188.237,258.648 188.739,260.034 189.242,261.413 189.744,262.783 190.247,264.145 190.749,265.499 191.252,266.845 191.754,268.183 192.257,269.513 192.759,270.834 193.262,272.148 193.764,273.453 194.267,274.751 194.769,276.040 195.272,277.321 195.774,278.594 196.277,279.859 196.779,281.116 197.282,282.365 197.784,283.605 198.287,284.838 198.789,286.062 199.292,287.279 199.794,288.487 200.297,289.687 200.799,290.879 201.302,292.063 201.804,293.239 202.307,294.407 202.809,295.566 203.312,296.718 203.814,297.861 204.317,298.997 204.819,300.124 205.322,301.243 205.824,302.354 206.327,303.457 206.829,304.552 207.332,305.639 207.834,306.717 208.337,307.788 208.839,308.850 209.342,309.905 209.844,310.951 210.347,311.989 210.849,313.019 211.352,314.041 211.854,315.055 212.357,316.061 212.859,317.058 213.362,318.048 213.864,319.029 214.367,320.003 214.869,320.968 215.372,321.925 215.874,322.874 216.377,323.815 216.879,324.748 217.382,325.673 217.884,326.589 218.387,327.498 218.889,328.398 219.392,329.291 219.894,330.175 220.397,331.051 220.899,331.919 221.402,332.779 221.904,333.631 222.407,334.475 222.909,335.310 223.412,336.138 223.914,336.957 224.417,337.769 224.919,338.572 225.422,339.367 225.924,340.154 226.427,340.933 226.929,341.704 227.432,342.467 227.934,343.221 228.437,343.968 228.939,344.706 229.442,345.437 229.944,346.159 230.447,346.873 230.949,347.579 231.452,348.277 231.954,348.967 232.457,349.649 232.959,350.322 233.462,350.988 233.964,351.645 234.467,352.295 234.969,352.936 235.472,353.569 235.974,354.194 236.477,354.811 236.979,355.420 237.482,356.021 237.984,356.613 238.487,357.198 238.989,357.774 239.492,358.343 239.994,358.903 240.497,359.455 240.999,359.999 241.502,360.535 242.004,361.063 242.507,361.583 243.009,362.094 243.512,362.598 244.014,363.093 244.517,363.581 245.019,364.060 245.522,364.531 246.024,364.994 246.527,365.449 247.029,365.896 247.532,366.335 248.034,366.766 248.537,367.188 249.039,367.603 249.542,368.009 250.044,368.407 250.547,368.797 251.049,369.179 251.552,369.553 252.054,369.919 252.557,370.277 253.059,370.627 253.562,370.968 254.064,371.302 254.567,371.627 255.069,371.944 255.572,372.253 256.074,372.554 256.577,372.847 257.079,373.132 257.582,373.409 258.084,373.678 258.587,373.938 259.089,374.191 259.592,374.435 260.094,374.671 260.597,374.899 261.099,375.119 261.602,375.331 262.104,375.535 262.607,375.731 263.109,375.919 263.612,376.098 264.114,376.270 264.617,376.433 265.119,376.588 265.622,376.735 266.124,376.874 266.627,377.005 267.129,377.128 267.632,377.243 268.134,377.350 268.637,377.448 269.139,377.539 269.642,377.621 270.144,377.695 270.647,377.761 271.149,377.819 271.652,377.869 272.154,377.911 272.657,377.945 273.159,377.971 273.662,377.988 274.164,377.998 274.667,377.999 275.169,377.992 275.672,377.977 276.174,377.955 276.677,377.923 277.179,377.884 277.682,377.837 278.184,377.782 278.687,377.718 279.189,377.647 279.692,377.567 280.194,377.479 280.697,377.383 281.199,377.280 281.702,377.168 282.204,377.047 282.707,376.919 283.209,376.783 283.712,376.638 284.214,376.486 284.717,376.325 285.219,376.156 285.722,375.980 286.224,375.795 286.727,375.602 287.229,375.400 287.732,375.191 288.234,374.974 288.737,374.748 289.239,374.515 289.742,374.273 290.244,374.023 290.747,373.766 291.249,373.500 291.752,373.226 292.254,372.943 292.757,372.653 293.259,372.355 293.762,372.048 294.264,371.734 294.767,371.411 295.269,371.080 295.772,370.742 296.274,370.395 296.777,370.040 297.279,369.676 297.782,369.305 298.284,368.926 298.787,368.538 299.289,368.143 299.792,367.739 300.294,367.328 300.797,366.908 301.299,366.480 301.802,366.044 302.304,365.600 302.807,365.147 303.309,364.687 303.812,364.219 304.314,363.742 304.817,363.257 305.319,362.765 305.822,362.264 306.324,361.755 306.827,361.238 307.329,360.713 307.832,360.179 308.334,359.638 308.837,359.089 309.339,358.531 309.842,357.965 310.344,357.392 310.847,356.810 311.349,356.220 311.852,355.622 312.354,355.016 312.857,354.401 313.359,353.779 313.862,353.149 314.364,352.510 314.867,351.863 315.369,351.209 315.872,350.546 316.374,349.875 316.877,349.196 317.379,348.509 317.882,347.813 318.384,347.110 318.887,346.399 319.389,345.679 319.892,344.951 320.394,344.216 320.897,343.472 321.399,342.720 321.902,341.960 322.404,341.192 322.907,340.416 323.409,339.631 323.912,338.839 324.414,338.038 324.917,337.230 325.419,336.413 325.922,335.588 326.424,334.755 326.927,333.914 327.429,333.065 327.932,332.208 328.434,331.342 328.937,330.469 329.439,329.587 329.942,328.698 330.444,327.800 330.947,326.894 331.449,325.980 331.952,325.058 332.454,324.128 332.957,323.190 333.459,322.243 333.962,321.289 334.464,320.326 334.967,319.356 335.469,318.377 335.972,317.390 336.474,316.395 336.977,315.392 337.479,314.381 337.982,313.362 338.484,312.334 338.987,311.299 339.489,310.255 339.992,309.204 340.494,308.144 340.997,307.076 341.499,306.000 "
     stroke-width="5"
     stroke="blue"
     fill="none" />
  <circle
     id="undefined"
     cx="341.499"
     cy="306.000"
     r="7.5"
     stroke-width="5"
     stroke="blue"
     fill="white" />
  <path
     id="path17"
     d="M341.5,234 341.779,233.998 342.058,233.995 342.337,233.988 342.616,233.980 342.895,233.968 343.174,233.955 343.454,233.938 343.733,233.920 344.012,233.898 344.291,233.875 344.570,233.848 344.849,233.820 345.129,233.788 345.408,233.755 345.687,233.718 345.966,233.680 346.245,233.638 346.524,233.595 346.804,233.548 347.083,233.500 347.362,233.448 347.641,233.395 347.920,233.338 348.199,233.280 348.479,233.218 348.758,233.155 349.037,233.088 349.316,233.020 349.595,232.948 349.874,232.875 350.154,232.798 350.433,232.720 350.712,232.638 350.991,232.555 351.270,232.468 351.549,232.380 351.829,232.288 352.108,232.195 352.387,232.098 352.666,232.000 352.945,231.898 353.224,231.795 353.504,231.688 353.783,231.580 354.062,231.468 354.341,231.355 354.620,231.238 354.899,231.120 355.179,230.998 355.458,230.875 355.737,230.748 356.016,230.620 356.295,230.488 356.574,230.355 356.854,230.218 357.133,230.080 357.412,229.938 357.691,229.795 357.970,229.648 358.249,229.500 358.529,229.348 358.808,229.195 359.087,229.038 359.366,228.880 359.645,228.718 359.924,228.555 360.204,228.388 360.483,228.220 360.762,228.048 361.041,227.875 361.320,227.698 361.599,227.520 361.879,227.338 362.158,227.155 362.437,226.968 362.716,226.780 362.995,226.588 363.274,226.395 363.554,226.198 363.833,226.000 364.112,225.798 364.391,225.595 364.670,225.388 364.949,225.180 365.229,224.968 365.508,224.755 365.787,224.538 366.066,224.320 366.345,224.098 366.624,223.875 366.904,223.648 367.183,223.420 367.462,223.188 367.741,222.955 368.020,222.718 368.299,222.480 368.579,222.238 368.858,221.995 369.137,221.748 369.416,221.500 369.695,221.248 369.974,220.995 370.254,220.738 370.533,220.480 370.812,220.218 371.091,219.955 371.370,219.688 371.649,219.420 371.929,219.148 372.208,218.875 372.487,218.598 372.766,218.320 373.045,218.038 373.324,217.755 373.604,217.468 373.883,217.180 374.162,216.888 374.441,216.595 374.720,216.298 374.999,216.000 375.279,215.698 375.558,215.395 375.837,215.088 376.116,214.780 376.395,214.468 376.674,214.155 376.954,213.838 377.233,213.520 377.512,213.198 377.791,212.875 378.070,212.548 378.349,212.220 378.629,211.888 378.908,211.555 379.187,211.218 379.466,210.880 379.745,210.538 380.024,210.195 380.304,209.848 380.583,209.500 380.862,209.148 381.141,208.795 381.420,208.438 381.699,208.080 381.979,207.718 382.258,207.355 382.537,206.988 382.816,206.620 383.095,206.248 383.374,205.875 383.654,205.498 383.933,205.120 384.212,204.738 384.491,204.355 384.770,203.968 385.049,203.580 385.329,203.188 385.608,202.795 385.887,202.398 386.166,202.000 386.445,201.598 386.724,201.195 387.004,200.788 387.283,200.380 387.562,199.968 387.841,199.555 388.120,199.138 388.399,198.720 388.679,198.298 388.958,197.875 389.237,197.448 389.516,197.020 389.795,196.588 390.074,196.155 390.354,195.718 390.633,195.280 390.912,194.838 391.191,194.395 391.470,193.948 391.749,193.500 392.029,193.048 392.308,192.595 392.587,192.138 392.866,191.680 393.145,191.218 393.424,190.755 393.704,190.288 393.983,189.820 394.262,189.348 394.541,188.875 394.820,188.398 395.099,187.920 395.379,187.438 395.658,186.955 395.937,186.468 396.216,185.980 396.495,185.488 396.774,184.995 397.054,184.498 397.333,184.000 397.612,183.498 397.891,182.995 398.170,182.488 398.449,181.980 398.729,181.468 399.008,180.955 399.287,180.438 399.566,179.920 399.845,179.398 400.124,178.875 400.404,178.348 400.683,177.820 400.962,177.288 401.241,176.755 401.520,176.218 401.799,175.680 402.079,175.138 402.358,174.595 402.637,174.048 402.916,173.500 403.195,172.948 403.474,172.395 403.754,171.838 404.033,171.280 404.312,170.718 404.591,170.155 404.870,169.588 405.149,169.020 405.429,168.448 405.708,167.875 405.987,167.298 406.266,166.720 406.545,166.138 406.824,165.555 407.104,164.968 407.383,164.380 407.662,163.788 407.941,163.195 408.220,162.598 408.499,162.000 408.779,161.398 409.058,160.795 409.337,160.188 409.616,159.580 409.895,158.968 410.174,158.355 410.454,157.738 410.733,157.120 411.012,156.498 411.291,155.875 411.570,155.248 411.849,154.620 412.129,153.988 412.408,153.355 412.687,152.718 412.966,152.080 413.245,151.438 413.524,150.795 413.804,150.148 414.083,149.500 414.362,148.848 414.641,148.195 414.920,147.538 415.199,146.880 415.479,146.218 415.758,145.555 416.037,144.888 416.316,144.220 416.595,143.548 416.874,142.875 417.154,142.198 417.433,141.520 417.712,140.838 417.991,140.155 418.270,139.468 418.549,138.780 418.829,138.088 419.108,137.395 419.387,136.698 419.666,136.000 419.945,135.298 420.224,134.595 420.504,133.888 420.783,133.180 421.062,132.468 421.341,131.755 421.620,131.038 421.899,130.320 422.179,129.598 422.458,128.875 422.737,128.148 423.016,127.420 423.295,126.688 423.574,125.955 423.854,125.218 424.133,124.480 424.412,123.738 424.691,122.995 424.970,122.248 425.249,121.500 425.529,120.748 425.808,119.995 426.087,119.238 426.366,118.480 426.645,117.718 426.924,116.955 427.204,116.188 427.483,115.420 427.762,114.648 428.041,113.875 428.320,113.098 428.599,112.320 428.879,111.538 429.158,110.755 429.437,109.968 429.716,109.180 429.995,108.389 430.274,107.595 430.554,106.799 430.833,106.000 431.112,105.199 431.391,104.395 431.670,103.589 431.949,102.780 432.229,101.969 432.508,101.155 432.787,100.339 433.066,99.520 433.345,98.699 433.624,97.875 433.904,97.049 434.183,96.220 434.462,95.389 434.741,94.555 435.020,93.719 435.299,92.880 435.579,92.039 435.858,91.195 436.137,90.349 436.416,89.500 436.695,88.649 436.974,87.795 437.254,86.939 437.533,86.080 437.812,85.219 438.091,84.355 438.370,83.489 438.649,82.620 438.929,81.749 439.208,80.875 439.487,79.999 439.766,79.120 440.045,78.239 440.324,77.355 440.604,76.469 440.763,75.959 "
     stroke-width="5"
     stroke="blue"
     fill="none" />
  <circle
     id="circle17"
     cx="341.49899"
     cy="233.76828"
     r="7.5"
     stroke-width="5"
     stroke="#0000ff"
     fill="#ffffff" />
  <circle
     id="circle18"
     cx="341.49899"
     cy="378"
     r="7.5"
     stroke-width="5"
     stroke="#0000ff"
     fill="#ffffff"
     style="fill:#0000ff;fill-opacity:1" />
</svg>
